<?xml version="1.0" encoding="UTF-8" standalone="no"?>
<!-- Created with Inkscape (http://www.inkscape.org/) -->

<svg
   xmlns:osb="http://www.openswatchbook.org/uri/2009/osb"
   xmlns:dc="http://purl.org/dc/elements/1.1/"
   xmlns:cc="http://creativecommons.org/ns#"
   xmlns:rdf="http://www.w3.org/1999/02/22-rdf-syntax-ns#"
   xmlns:svg="http://www.w3.org/2000/svg"
   xmlns="http://www.w3.org/2000/svg"
   xmlns:sodipodi="http://sodipodi.sourceforge.net/DTD/sodipodi-0.dtd"
   xmlns:inkscape="http://www.inkscape.org/namespaces/inkscape"
   width="800"
   height="800"
   id="svg2"
   version="1.1"
   inkscape:version="0.48.4 r9939"
   sodipodi:docname="provEye2.svg">
  <defs
     id="defs4">
    <linearGradient
       id="linearGradient5267"
       osb:paint="solid">
      <stop
         style="stop-color:#000000;stop-opacity:1;"
         offset="0"
         id="stop5269" />
    </linearGradient>
    <linearGradient
       id="linearGradient3816"
       osb:paint="solid">
      <stop
         style="stop-color:#003366;stop-opacity:1;"
         offset="0"
         id="stop3818" />
    </linearGradient>
    <linearGradient
       id="linearGradient3801"
       osb:paint="solid">
      <stop
         style="stop-color:#000000;stop-opacity:1;"
         offset="0"
         id="stop3803" />
    </linearGradient>
    <mask
       maskUnits="userSpaceOnUse"
       id="mask5489">
      <path
         sodipodi:nodetypes="sscss"
         inkscape:connector-curvature="0"
         id="path5491"
         d="m -279.76837,435.39837 c 0,0.22027 -79.88298,59.99432 -179.70595,59.99432 -99.82298,0 -181.78501,-59.99432 -181.78501,-59.99432 0,0 76.76436,-50.63852 176.58734,-50.63852 99.82297,0 184.90362,50.27421 184.90362,50.63852 z"
         style="opacity:0.64957269;color:#000000;fill:#6699cc;fill-opacity:1;fill-rule:nonzero;stroke:#000000;stroke-width:15.00903893;stroke-miterlimit:4;stroke-opacity:1;marker:none;visibility:visible;display:inline;overflow:visible;enable-background:accumulate" />
    </mask>
    <mask
       maskUnits="userSpaceOnUse"
       id="mask5571">
      <path
         style="opacity:0.64957269;color:#000000;fill:#6699cc;fill-opacity:1;fill-rule:nonzero;stroke:#000000;stroke-width:15.00903893;stroke-miterlimit:4;stroke-opacity:1;marker:none;visibility:visible;display:inline;overflow:visible;enable-background:accumulate"
         d="m -88.8953,260.24041 c 0,0.22027 -79.88298,59.99432 -179.70595,59.99432 -99.82298,0 -181.78501,-59.99432 -181.78501,-59.99432 0,0 76.76436,-50.63852 176.58734,-50.63852 99.82297,0 184.90362,50.27421 184.90362,50.63852 z"
         id="path5573"
         inkscape:connector-curvature="0"
         sodipodi:nodetypes="sscss" />
    </mask>
  </defs>
  <sodipodi:namedview
     id="base"
     pagecolor="#ffffff"
     bordercolor="#666666"
     borderopacity="1.0"
     inkscape:pageopacity="0.0"
     inkscape:pageshadow="2"
     inkscape:zoom="0.68021473"
     inkscape:cx="208.11554"
     inkscape:cy="657.90315"
     inkscape:document-units="px"
     inkscape:current-layer="layer1"
     showgrid="false"
     inkscape:window-width="1920"
     inkscape:window-height="1057"
     inkscape:window-x="-8"
     inkscape:window-y="-8"
     inkscape:window-maximized="1" />
  <metadata
     id="metadata7">
    <rdf:RDF>
      <cc:Work
         rdf:about="">
        <dc:format>image/svg+xml</dc:format>
        <dc:type
           rdf:resource="http://purl.org/dc/dcmitype/StillImage" />
        <dc:title></dc:title>
      </cc:Work>
    </rdf:RDF>
  </metadata>
  <g
     inkscape:label="Layer 1"
     inkscape:groupmode="layer"
     id="layer1"
     transform="translate(0,-252.36218)"
     style="opacity:0.69230769">
    <path
       sodipodi:type="star"
       style="color:#000000;fill:#336699;stroke:#000000;stroke-width:16.50000000000000000;stroke-miterlimit:4;stroke-opacity:1;stroke-dasharray:none;marker:none;visibility:visible;display:inline;overflow:visible;enable-background:accumulate"
       id="path3031"
       sodipodi:sides="3"
       sodipodi:cx="407"
       sodipodi:cy="383"
       sodipodi:r1="396.04672"
       sodipodi:r2="199.17223"
       sodipodi:arg1="0.52353068"
       sodipodi:arg2="1.505413"
       inkscape:flatsided="false"
       inkscape:rounded="0"
       inkscape:randomized="0"
       d="M 750.00001,581 420.01327,581.74665 64.026963,581.04672 228.37372,294.89649 406.97303,-13.046721 572.61301,272.35686 z"
       transform="translate(-7.0134845,346.36218)"
       inkscape:transform-center-x="1.3035023"
       inkscape:transform-center-y="-96.242268" />
    <path
       style="color:#000000;fill:#6699cc;fill-opacity:1;fill-rule:nonzero;stroke:#000000;stroke-width:15.00903892999999900;stroke-miterlimit:4;stroke-opacity:1;marker:none;visibility:visible;display:inline;overflow:visible;enable-background:accumulate"
       d="m -279.46945,434.79481 c 0,0.22027 -79.88299,59.99432 -179.70596,59.99432 -99.82299,0 -181.78502,-59.99432 -181.78502,-59.99432 0,0 76.76436,-50.63852 176.58735,-50.63852 99.82297,0 184.90363,50.27421 184.90363,50.63852 z"
       id="path3807"
       inkscape:connector-curvature="0"
       sodipodi:nodetypes="sscss"
       mask="url(#mask5489)"
       transform="translate(16.632555,-3.118604)" />
    <path
       mask="none"
       style="color:#000000;fill:none;stroke:#000000;stroke-width:15.00899982000000000;stroke-miterlimit:4;stroke-opacity:1;stroke-dasharray:none;marker:none;visibility:visible;display:inline;overflow:visible;enable-background:accumulate"
       d="m -414.60894,857.55699 c 0,0.22027 -79.883,59.99432 -179.70596,59.99432 -99.82298,0 -181.78502,-59.99432 -181.78502,-59.99432 0,0 76.76437,-50.63852 176.58735,-50.63852 99.82296,0 184.90363,50.27421 184.90363,50.63852 z"
       id="path5365"
       inkscape:connector-curvature="0"
       sodipodi:nodetypes="sscss" />
    <path
       sodipodi:nodetypes="sscss"
       inkscape:connector-curvature="0"
       id="path5305"
       d="m 580.74548,688.11285 c 0,0.22027 -79.88298,59.99432 -179.70595,59.99432 -99.82298,0 -181.78501,-59.99432 -181.78501,-59.99432 0,0 76.76436,-50.63852 176.58734,-50.63852 99.82297,0 184.90362,50.27421 184.90362,50.63852 z"
       style="color:#000000;fill:#6699cc;fill-opacity:1;fill-rule:nonzero;stroke:#000000;stroke-width:15.00903892999999900;stroke-miterlimit:4;stroke-opacity:1;marker:none;visibility:visible;display:inline;overflow:visible;enable-background:accumulate"
       mask="none" />
    <path
       style="color:#000000;fill:#89b3dd;fill-opacity:1;fill-rule:nonzero;stroke:#000000;stroke-width:16.5;stroke-miterlimit:4;stroke-opacity:1;stroke-dasharray:none;marker:none;visibility:visible;display:inline;overflow:visible;enable-background:accumulate"
       mask="none"
       d="m 399.70312,638.20686 c -18.43968,0 -36.09749,1.74502 -52.625,4.5625 -1.59343,5.16561 -2.4375,10.6551 -2.4375,16.34375 0,30.57988 24.76387,55.375 55.34375,55.375 30.57988,0 55.375,-24.79512 55.375,-55.375 0,-5.70968 -0.0977,-10.48888 -1.70244,-15.67119 -16.89246,-2.78579 -34.75243,-5.23506 -53.95381,-5.23506 z"
       id="path3814"
       inkscape:connector-curvature="0"
       sodipodi:nodetypes="scssscs" />
    <path
       mask="none"
       style="color:#000000;fill:none;stroke:#000000;stroke-width:15.00899982000000000;stroke-miterlimit:4;stroke-opacity:1;stroke-dasharray:none;marker:none;visibility:visible;display:inline;overflow:visible;enable-background:accumulate"
       d="m -106.90669,753.60353 c 0,0.22027 -79.883,59.99432 -179.70596,59.99432 -99.82298,0 -181.78502,-59.99432 -181.78502,-59.99432 0,0 76.76437,-50.63852 176.58735,-50.63852 99.82296,0 184.90363,50.27421 184.90363,50.63852 z"
       id="path5361"
       inkscape:connector-curvature="0"
       sodipodi:nodetypes="sscss" />
    <path
       mask="none"
       style="opacity:0.64957268999999995;color:#000000;fill:none;stroke:#000000;stroke-width:15.00899982000000000;stroke-miterlimit:4;stroke-opacity:1;stroke-dasharray:none;marker:none;visibility:visible;display:inline;overflow:visible;enable-background:accumulate"
       d="m -348.37764,743.10062 c 0,0.22027 -79.883,59.99432 -179.70596,59.99432 -99.82298,0 -181.78502,-59.99432 -181.78502,-59.99432 0,0 76.76437,-50.63852 176.58735,-50.63852 99.82296,0 184.90363,50.27421 184.90363,50.63852 z"
       id="path5361-3"
       inkscape:connector-curvature="0"
       sodipodi:nodetypes="sscss" />
    <path
       style="fill:none;stroke:#000000;stroke-width:1px;stroke-linecap:butt;stroke-linejoin:miter;stroke-opacity:1"
       d="m -501.0557,354.03963 c 274.43714,-12.47441 279.63482,43.66046 279.63482,43.66046 l -3.11861,-95.63719 z"
       id="path5495"
       inkscape:connector-curvature="0"
       transform="translate(0,252.36218)" />
    <path
       style="fill:none;stroke:#000000;stroke-width:12.10000038;stroke-linecap:butt;stroke-linejoin:miter;stroke-miterlimit:4;stroke-opacity:1;stroke-dasharray:none"
       d="m 247.40924,638.62738 c 50.96514,-29.08069 99.75111,-34.00119 157.47759,-35.62629 69.22917,2.80156 103.41565,12.96385 144.10477,35.04335 l 0.53858,0.34043 0.38365,0.24251"
       id="path5516"
       inkscape:connector-curvature="0"
       sodipodi:nodetypes="ccccc" />
    <path
       sodipodi:type="arc"
       style="color:#000000;fill:#000000;fill-opacity:1;fill-rule:nonzero;stroke:#000000;stroke-width:12.10000038;stroke-miterlimit:4;stroke-opacity:1;stroke-dasharray:none;marker:none;visibility:visible;display:inline;overflow:visible;enable-background:accumulate"
       id="path5566"
       sodipodi:cx="-290.03018"
       sodipodi:cy="45.29784"
       sodipodi:rx="10.395347"
       sodipodi:ry="10.395347"
       d="m -279.63484,45.29784 a 10.395347,10.395347 0 1 1 -20.79069,0 10.395347,10.395347 0 1 1 20.79069,0 z"
       transform="translate(687.39228,621.65687)" />
    <path
       mask="url(#mask5571)"
       transform="translate(-290.14863,36.899849)"
       d="m -218.13024,230.5 a 55.369762,55.369762 0 1 1 -110.73952,0 55.369762,55.369762 0 1 1 110.73952,0 z"
       sodipodi:ry="55.369762"
       sodipodi:rx="55.369762"
       sodipodi:cy="230.5"
       sodipodi:cx="-273.5"
       id="path5575"
       style="color:#000000;fill:#89b3dd;fill-opacity:1;fill-rule:nonzero;stroke:#000000;stroke-width:16.5;stroke-miterlimit:4;stroke-opacity:1;stroke-dasharray:none;marker:none;visibility:visible;display:inline;overflow:visible;enable-background:accumulate"
       sodipodi:type="arc" />
  </g>
</svg>
